<?xml version="1.0" standalone="no"?>
<!DOCTYPE svg PUBLIC "-//W3C//DTD SVG 1.1//EN" "http://www.w3.org/Graphics/SVG/1.1/DTD/svg11.dtd" >
<svg xmlns="http://www.w3.org/2000/svg">
<metadata>Generated by IcoMoon</metadata>
<defs>
<font id="iconfont" horiz-adv-x="1024">
<font-face units-per-em="1024" ascent="896" descent="-128" />
<missing-glyph horiz-adv-x="1024" />
<glyph unicode="&#x20;" d="" />
<glyph unicode="&#xe501;" glyph-name="wenyao" d="M721.705 806.913q-83.081 0-141.138-59.058l-128.125-128.125q-6.006-5.005-6.006-13.513t5.505-14.014 14.014-5.505 14.514 5.005l128.125 128.125q46.045 47.046 113.11 47.046 66.065 0 113.11-47.046 6.006-6.006 14.014-6.006t14.014 6.006 6.006 14.514-6.006 13.513q-58.057 59.058-141.138 59.058v0zM152.149 376.493q-70.068-70.068-70.068-169.666t70.068-169.666 169.666-70.068 169.666 70.068l185.181 186.182-339.331 339.331zM311.304-109.982q-127.124 0-217.212 90.088t-90.088 217.713 90.088 217.713l399.39 399.39q90.088 90.088 218.213 90.088 127.124 0 217.212-90.088t90.088-217.212q0-128.125-90.088-218.213l-399.39-399.39q-91.089-90.088-218.213-90.088zM711.695 848.954q-104.102 0-178.174-73.071l-400.391-400.391q-73.071-73.071-73.071-177.674t73.572-178.174 177.674-73.572 178.174 73.071l400.391 400.391q73.071 73.071 73.071 178.174 0 104.102-73.071 178.174-74.072 73.071-178.174 73.071z" />
<glyph unicode="&#xe601;" glyph-name="icon2" d="M569.556 611.722h-97.095v-136.133h-136.133v-116.113h136.133v-117.114h97.095v117.114h135.132v116.113h-135.132v136.133zM782.764 747.855q0 8.008-5.505 13.513t-13.513 5.505h-59.058v39.038q0 16.016-11.011 27.527t-27.026 11.511h-311.304q-16.016 0-27.527-11.511t-11.511-27.527v-39.038h-58.057q-5.005 0-9.509-5.005t-7.507-9.009l-2.002-5.005h-136.133q-16.016 0-27.527-11.511t-11.511-27.527v-602.588q0-48.047 34.033-82.080t82.080-34.033h660.645q48.047 0 82.581 34.033t34.534 82.080v641.627h-175.171zM375.367 786.893h271.265v-39.038h-271.265v39.038zM821.803 48.172h-621.607q-32.031 0-55.054 23.022t-23.022 55.054h776.759q0-32.031-22.522-55.054t-54.553-23.022zM898.878 184.305h-776.759v485.474q0 8.008 6.006 14.014t14.014 6.006h737.72q8.008 0 13.513-6.006t5.505-14.014v-485.474z" />
<glyph unicode="&#xe603;" glyph-name="guanlian" d="M557.544 206.326q-99.097 0-167.163 68.066-19.019 19.019-19.019 46.045t19.019 46.045 46.045 19.019 46.045-19.019q33.032-34.033 83.081-30.53t88.086 40.54l200.196 200.196q42.041 42.041 42.041 96.094 0 44.043-31.030 75.073-34.033 34.033-82.080 31.030-50.049-2.002-90.088-41.040l-114.111-115.112q-22.022 22.022-82.581 29.529t-84.583-12.512l190.186 189.185q75.073 75.073 175.171 80.078 105.103 5.005 179.175-69.067 29.028-29.028 49.048-77.576t20.020-88.587v-1.001q0-51.050-21.021-100.098t-59.058-87.085l-200.196-200.196q-78.076-79.077-187.183-79.077zM280.274 507.621l-200.196-200.196q-38.037-38.037-59.058-87.085t-21.021-100.098q0-98.096 69.067-167.163 74.072-74.072 179.175-69.067 101.099 5.005 175.171 80.078l190.186 189.185q-24.023-20.020-84.583-12.512t-82.581 29.529l-114.111-115.112q-40.039-39.038-90.088-41.040-48.047-2.002-81.079 31.030-31.030 31.030-31.030 75.073 0 54.053 42.041 96.094l199.195 200.196q38.037 37.036 88.086 40.54t83.081-30.53q19.019-19.019 46.045-19.019t46.045 19.019 19.019 46.045-19.019 46.045q-68.066 68.066-167.163 68.066-108.106 0-187.183-79.077v0z" />
<glyph unicode="&#xe604;" glyph-name="iconfont02" d="M512.5 909.013q-139.136 0-257.251-68.567t-186.682-186.682-68.567-257.251 68.567-257.251 186.682-186.682 257.251-68.567 257.251 68.567 186.682 186.682 68.567 257.251-68.567 257.251-186.682 186.682-257.251 68.567zM512.5-51.926q-122.119 0-225.22 60.059t-163.159 163.159-60.059 225.22 60.059 225.22 163.159 163.159 225.22 60.059 225.22-60.059 163.159-163.159 60.059-225.22-60.059-225.22-163.159-163.159-225.22-60.059zM646.631 363.48q46.045 32.031 73.071 82.080t27.026 108.106q0 95.093-68.066 163.159t-163.66 68.066-163.66-68.066-68.066-163.159q0-58.057 27.026-108.106t73.071-82.080q-96.094-40.039-156.152-127.124t-60.059-194.19q0-14.014 10.010-24.023t24.023-10.010 23.523 10.010 9.509 24.023q0 115.112 82.581 197.693t198.194 82.581 198.194-82.581 82.581-197.693q0-14.014 9.509-24.023t23.523-10.010 24.023 10.010 10.010 24.023q0 107.105-60.059 194.69t-156.152 126.624zM351.343 553.666q0 68.066 48.047 116.113t115.613 48.047 115.613-48.047 48.047-116.113-48.047-116.113-115.613-48.047-115.613 48.047-48.047 116.113z" />
<glyph unicode="&#xe605;" glyph-name="tuichu" horiz-adv-x="1026" d="M1015.992 423.539l-171.167 213.208q-13.013 16.016-33.032 16.016-8.008 0-14.014-2.002-13.013-5.005-21.021-16.016t-8.008-25.024v-128.125h-341.333q-36.035 0-61.060-25.024t-25.024-60.059 25.024-60.059 61.060-25.024h341.333v-128.125q0-14.014 8.008-25.024t21.021-16.016q6.006-2.002 14.014-2.002 20.020 0 33.032 16.016l171.167 213.208q9.009 12.012 9.009 27.026t-9.009 27.026zM597.584 55.179h-342.334q-35.034 0-59.558 25.024t-24.524 60.059v513.501q0 35.034 25.024 59.558t60.059 24.524h341.333q36.035 0 61.060 25.024t25.024 60.559-25.024 60.559-61.060 25.024h-426.416q-71.069 0-121.118-50.049t-50.049-121.118v-682.667q0-71.069 50.049-121.118t121.118-50.049h426.416q36.035 0 61.060 25.024t25.024 60.559-25.024 60.559-61.060 25.024z" />
<glyph unicode="&#xe606;" glyph-name="message-copy" d="M752.735 516.63q-25.024 0-42.542-17.517t-17.517-42.542 17.517-42.542 42.542-17.517 42.542 17.517 17.517 42.542-17.517 42.542-42.542 17.517v0zM512.5 96.219q-50.049 0-101.099 11.011l-142.139-85.083 2.002 139.136q-83.081 50.049-131.128 127.625t-48.047 167.664q0 98.096 56.055 181.177t153.15 131.128 211.206 48.047q174.17 0 297.29-105.603t123.12-254.749-123.12-254.749-297.29-105.603v0zM512.5 876.981q-98.096 0-186.682-33.533t-153.15-89.587-102.6-134.131-38.037-163.159q0-98.096 48.047-183.679t132.129-144.641v-212.207l210.205 128.125q46.045-8.008 90.088-8.008 98.096 0 186.682 33.533t153.15 89.587 102.6 134.131 38.037 163.159-38.037 163.159-102.6 134.131-153.15 89.587-186.682 33.533v0zM272.266 516.63q-25.024 0-42.542-17.517t-17.517-42.542 17.517-42.542 42.542-17.517 42.542 17.517 17.517 42.542-17.517 42.542-42.542 17.517v0zM512.5 516.63q-25.024 0-42.542-17.517t-17.517-42.542 17.517-42.542 42.542-17.517 42.542 17.517 17.517 42.542-17.517 42.542-42.542 17.517v0z" />
<glyph unicode="&#xe611;" glyph-name="xiala-copy" d="M1006.983 190.311q0-22.022-15.515-37.537t-37.036-15.515-36.536 16.016l-402.393 401.392-408.399-407.398q-15.015-15.015-36.536-15.015t-37.036 15.015-15.515 36.536 16.016 37.537l444.434 444.434q15.015 15.015 36.536 15.015t37.537-15.015l438.428-439.429q16.016-15.015 16.016-36.035v0z" />
<glyph unicode="&#xe612;" glyph-name="wangzhibiaozhi" d="M511.5 839.945q-90.088 0-171.668-35.034t-141.138-94.092-94.592-141.138-35.034-172.168 35.034-172.168 94.592-141.138 141.138-94.092 171.668-35.034 172.168 35.034 141.138 94.092 94.092 141.138 35.034 172.168-35.034 172.168-94.092 141.138-141.138 94.092-172.168 35.034v0zM887.867 411.527h-145.142q-1.001 43.042-8.508 75.073t-23.523 78.076q9.009 3.003 18.018 8.008t14.514 8.008 15.015 9.509 12.012 8.508 15.015 11.511 14.514 11.511q44.043-49.048 65.064-96.594t23.022-113.611v0zM496.485 21.146q-13.013 11.011-24.023 23.523t-20.52 29.028-15.515 28.027-16.016 34.033-16.016 32.532q2.002 1.001 11.511 4.004t11.011 3.503 9.009 2.502 10.010 2.502 8.508 2.002 10.010 2.002 10.010 1.001 11.511 1.001 11.511 0.5v-166.162h-1.001zM527.515 773.881q80.078-67.065 124.121-171.167-2.002-1.001-7.007-3.003-55.054-19.019-97.095-20.020l-22.022 194.19h2.002zM573.56 768.876q57.056-10.010 111.609-37.537t95.593-67.566q-4.004-3.003-13.513-10.010t-13.013-10.010-11.511-8.508-13.013-8.508-13.013-7.007l-16.016-8.008q-6.006 13.013-12.512 25.024t-17.017 26.025-17.017 22.022-21.021 23.523-19.019 20.020l-40.54 40.54zM497.486 773.881v-194.19q-20.020 1.001-39.038 4.504t-28.027 6.006-36.035 12.512q2.002 5.005 10.010 24.524t10.51 25.525 10.010 22.022 11.511 23.022 12.012 20.020 14.514 20.52 15.015 17.517 18.518 18.018h1.001zM345.337 611.722q-44.043 19.019-88.086 52.051 91.089 88.086 193.189 105.103-66.065-66.065-105.103-157.153v0zM383.374 554.667q28.027-10.010 40.039-13.513t32.031-7.007 42.041-4.504v-118.115h-144.141q1.001 40.039 7.507 70.068t22.522 73.071v0zM497.486 361.478v-124.121q-21.021-1.001-39.038-4.004t-28.528-6.006-36.536-11.011q-3.003 8.008-12.512 29.529t-12.012 28.027-7.507 22.522-6.506 30.53-1.501 34.534h144.141zM450.44 26.151q-104.102 17.017-183.179 85.083 43.042 30.029 89.087 48.047 36.035-76.074 94.092-133.13v0zM525.513 21.146l22.022 166.162q19.019 0 36.035-3.003t24.023-5.005 33.032-11.011q-42.041-88.086-113.11-147.144h-2.002zM689.674 159.281q14.014-6.006 24.023-13.013t21.521-17.517 21.521-17.517q-80.078-68.066-183.179-85.083 6.006 6.006 29.529 28.528t35.034 34.033 27.026 32.031 24.524 38.538v0zM652.637 216.336q-26.025 8.008-36.536 11.011t-29.028 6.006-39.539 4.004v124.121h145.142q0-20.020-2.002-34.534t-6.506-30.53-7.007-23.022-12.012-28.027-12.512-29.028v0zM547.535 411.527v118.115q23.022 1.001 43.042 4.504t32.031 7.007 40.039 13.513q15.015-43.042 22.022-72.571t8.008-70.569h-145.142zM238.233 621.732q49.048-37.036 97.095-57.056-17.017-46.045-24.023-78.076t-8.008-75.073h-167.163q2.002 62.061 27.026 108.106t75.073 102.1v0zM136.133 361.478h167.163q0-18.018 2.002-33.032t3.503-25.024 6.506-24.524 7.507-20.52 10.51-25.024 12.012-27.026q-51.050-20.020-99.097-54.053-29.028 30.029-45.044 47.546t-32.532 43.543-24.023 54.053-8.508 64.063v0zM777.76 152.274q-11.011 8.008-24.524 20.020t-25.024 20.020-27.527 14.014q3.003 8.008 11.511 27.026t11.011 25.024 7.507 20.52 6.506 24.524 3.503 25.024 2.002 33.032h145.142q-1.001-36.035-8.508-64.063t-24.023-54.053-32.532-43.543-45.044-47.546v0z" />
<glyph unicode="&#xe614;" glyph-name="sousuo-sousuo" d="M717.701 694.804q-69.067 69.067-160.657 93.091t-183.179 0-160.156-92.59-92.59-160.156 0-183.179 93.091-160.657q51.050-51.050 117.615-77.576t134.131-26.526 134.131 26.526 117.615 77.576v0q68.066 69.067 92.59 160.657t0 183.179-92.59 159.656v0zM136.633 114.237q-89.587 89.087-121.619 209.204t0 239.734 121.619 209.204 209.204 121.619 239.734 0 209.705-121.619 121.118-209.204 0-239.734-121.118-209.204-209.705-121.118-239.734 0-209.204 121.118zM1006.483-97.47q-18.518-18.518-45.044-18.518t-45.544 19.019l-89.087 89.087q-19.019 19.019-19.019 45.544t18.518 45.044 45.044 18.518 44.543-19.019l90.088-90.088q19.019-18.018 19.019-44.543t-18.518-45.044z" />
<glyph unicode="&#xe619;" glyph-name="shanchu" d="M510.499 824.931q-139.136 0-256.25-68.066t-185.681-185.681-68.567-256.751 68.567-256.751 185.681-185.681 256.25-68.066q211.206 0 360.852 149.646t149.646 360.852q0 139.136-68.066 256.25t-185.681 185.681-256.751 68.567zM719.703 172.293q14.014-13.013 14.014-33.032t-14.014-34.033-34.033-14.014-33.032 14.014l-142.139 141.138-141.138-141.138q-14.014-14.014-34.033-14.014t-34.033 14.014-14.014 33.533 14.014 33.533l141.138 142.139-141.138 141.138q-14.014 14.014-14.014 34.033t14.014 34.033 34.033 14.014 34.033-14.014l141.138-141.138 142.139 141.138q14.014 14.014 33.533 14.014t33.533-14.014 14.014-34.033-14.014-34.033l-141.138-141.138z" />
<glyph unicode="&#xe61a;" glyph-name="jixiao" d="M192.188 128.25q-11.011 3.003-18.518 12.012t-7.507 20.52 7.507 20.52 18.518 11.011h640.626q11.011-2.002 18.518-11.011t7.507-20.52-7.507-20.52-18.518-12.012h-640.626zM354.346 399.515l-138.135-153.15q-10.010-8.008-22.022-8.008-13.013 0-22.522 9.509t-9.509 22.522q0 11.011 6.006 19.019l182.178 202.197 192.188-178.174 218.213 242.237h-120.117q-11.011 2.002-18.518 11.511t-7.507 20.52 7.507 20.52 18.518 11.511h204.199l5.005-3.003h5.005l3.003-5.005v-237.232q1.001-3.003 1.001-6.006 0-14.014-10.010-23.523t-23.523-9.509-23.022 9.509-9.509 23.523q0 3.003 1.001 6.006v128.125l-256.25-281.275zM928.907 854.96h-832.813q-26.025 0-45.044-18.518t-19.019-45.544v-832.813q0-26.025 19.019-45.044t45.044-19.019h832.813q26.025 0 45.044 19.019t19.019 45.044v832.813q0 27.026-19.019 45.544t-45.044 18.518zM928.907 12.137q0-23.022-16.516-39.539t-39.539-16.516h-720.704q-23.022 0-39.539 16.516t-16.516 39.539v723.707q0 23.022 16.516 39.038t39.539 16.016h720.704q23.022 0 39.539-16.016t16.516-39.038v-723.707z" />
<glyph unicode="&#xe620;" glyph-name="right" d="M335.327 773.881l-114.111-114.111 369.361-344.336-356.348-353.345 108.106-111.109 461.451 460.45z" />
<glyph unicode="&#xe62b;" glyph-name="shanchu1" d="M575.562 723.832v53.052h-157.153v-53.052h-208.203v-104.102h573.56v104.102h-208.203zM262.256 150.272q0-44.043 30.53-74.573t73.572-30.53h261.255q43.042 0 73.572 30.53t30.53 74.573v417.408h-469.458v-417.408zM575.562 515.629h52.051v-365.357h-52.051v365.357zM470.459 515.629h53.052v-365.357h-53.052v365.357zM366.358 515.629h52.051v-365.357h-52.051v365.357z" />
<glyph unicode="&#xe62d;" glyph-name="zongji01" d="M143.14 344.461l341.333-155.152q23.022-11.011 37.036-11.011t39.038 11.011l340.332 155.152q12.012 5.005 17.517 25.525t5.505 39.539l-53.052-27.026-348.34-162.158-348.34 162.158-54.053 27.026q0-53.052 23.022-65.064zM143.14 506.62l341.333-155.152q23.022-11.011 37.036-11.011t39.038 11.011l340.332 155.152q19.019 9.009 19.519 37.537t-19.519 39.539l-340.332 182.178q-21.021 12.012-37.036 12.012t-39.038-12.012l-341.333-182.178q-19.019-13.013-19.519-39.539t19.519-37.537zM522.51 57.181l-348.34 163.159-54.053 27.026q0-53.052 23.022-66.065l341.333-155.152q23.022-11.011 37.036-11.011t39.038 11.011l340.332 155.152q12.012 6.006 17.517 26.526t5.505 39.539l-53.052-27.026z" />
<glyph unicode="&#xe62e;" glyph-name="guanlianfancha" d="M747.73 226.346q-40.039 0-74.573-17.517t-57.556-47.546l-175.171 129.126q3.003 16.016 3.003 32.031 0 9.009-1.001 17.017l182.178 134.131q49.048-55.054 123.12-55.054 68.066 0 116.113 48.547t48.047 116.614-48.047 116.614-116.614 48.547-116.614-48.547-48.047-116.614q0-17.017 3.003-33.032l-175.171-129.126q-23.022 31.030-57.556 48.547t-74.573 17.517q-68.066 0-116.614-48.547t-48.547-116.614 48.547-116.614 116.614-48.547q74.072 0 123.12 56.055l182.178-133.13q-1.001-9.009-1.001-18.018 0-69.067 48.047-117.114t116.614-48.047 116.614 48.047 48.047 116.614-48.047 116.614-116.113 48.047zM747.23 671.781q36.536 0 62.561-26.025t26.025-62.561-26.025-62.061-62.561-25.525-62.561 25.525-26.025 62.061 26.025 62.561 62.561 26.025zM278.772 234.354q-36.536 0-62.561 26.025t-26.025 62.561 26.025 62.061 62.561 25.525 62.061-25.525 25.525-62.061-25.525-62.561-62.061-26.025zM747.23-26.901q-36.536 0-62.561 26.025t-26.025 62.561 26.025 62.561 62.561 26.025 62.561-26.025 26.025-62.561-26.025-62.561-62.561-26.025z" />
<glyph unicode="&#xe62f;" glyph-name="xiugaimima1" d="M416.407-115.988q-28.027 0-46.045 19.519t-18.018 44.543v464.454q-30.029 0-64.063 20.020t-62.061 52.051-47.046 77.075-19.019 91.089q0 109.107 73.572 182.678t182.678 73.572h192.188q108.106 0 182.178-75.073t74.072-181.177q0-52.051-18.518-98.096t-47.546-76.575-62.561-48.047-63.562-17.517v-384.375q0-27.026-32.031-48.047-50.049-33.032-115.613-64.563t-108.606-31.531zM416.407 812.919q-71.069 0-115.613-47.046t-44.543-113.11 44.543-113.11 115.613-47.046q32.031 0 32.031-32.031v-464.454l128.125 64.063v400.391q0 32.031 32.031 32.031 71.069 0 115.613 47.046t44.543 113.11-44.543 113.11-115.613 47.046h-192.188zM592.579 652.762h-160.156q-18.018 0-33.032 13.513t-15.015 34.534 15.015 34.534 33.032 13.513h160.156q18.018 0 33.032-13.513t15.015-34.534-15.015-34.534-33.032-13.513z" />
<glyph unicode="&#xe634;" glyph-name="zhuti" horiz-adv-x="1026" d="M418.409 817.924h-285.279q-18.018 0-30.029-15.015t-12.012-36.035v-264.258q0-22.022 12.012-37.036t30.029-15.015h327.32v315.308q0 22.022-12.512 37.036t-29.529 15.015zM893.873 817.924h-286.28q-18.018 0-30.029-15.015t-12.012-36.035v-316.309h328.321q17.017 0 29.529 15.015t12.512 37.036v264.258q0 21.021-12.512 36.035t-29.529 15.015zM892.872 343.46h-327.32v-41.040q-1.001-5.005-1.001-11.011v-264.258q0-21.021 12.012-36.035t30.029-15.015h286.28q17.017 0 29.529 15.015t12.512 36.035v264.258q0 22.022-12.512 37.036t-29.529 15.015zM280.274 343.46h-148.145q-17.017 0-29.529-15.015t-12.512-37.036v-264.258q0-21.021 12.512-36.035t29.529-15.015h285.279q17.017 0 29.529 15.015t12.512 36.035v112.109h1.001v204.199h-180.176z" />
<glyph unicode="&#xe636;" glyph-name="zhutiB" d="M788 736.169c-32 31.831-42 31.831-63.62 31.831h-82.38s-66-60.923-130-60.923-128 60.923-128 60.923h-84.795c-22.575 0-33.205-12.923-53.358-31.831l-164.264-164.040c-11.34-11.325-29.583-47.821 0-84.784 0 0 142.44-131.643 156.417-132.883v-293.539c0-33.375 48.579-60.923 82-60.923h386c33.42 0 82 27.548 82 60.923v293.539c14.145 1.152 154.449 132.883 154.449 132.883 31.551 36.655 23.402 73.771 0 97.142l-154.449 151.682z" />
<glyph unicode="&#xe638;" glyph-name="icon" d="M897.877 123.245q-2.002 55.054-27.527 102.6t-68.567 79.578v201.196q0 87.085-55.054 153.65t-138.135 83.582v5.005q0 39.038-28.528 67.566t-67.566 28.528v0q-40.039 0-68.567-28.528t-28.528-67.566v-5.005q-83.081-17.017-138.135-83.582t-55.054-153.65v-201.196q-42.041-32.031-67.566-79.578t-28.528-102.6h96.094v-1.001h579.566v1.001h96.094zM491.48-51.926h24.023q47.046 0 82.080 31.531t41.040 77.576h-252.246q5.005-46.045 40.54-77.576t81.58-31.531h-17.017z" />
<glyph unicode="&#xe64a;" glyph-name="zhishiku2" d="M815.797 877.982h-602.588q-45.044 0-76.074-31.531t-31.030-75.574v-738.721q0-44.043 31.030-75.574t76.074-31.531h602.588q44.043 0 75.574 31.531t31.531 75.574v738.721q0 44.043-31.531 75.574t-75.574 31.531zM707.691 809.916v-272.266l-26.025 25.024q-10.010 9.009-23.022 9.009t-23.022-9.009l-28.027-26.025v273.267h100.098zM855.836 32.156q0-17.017-11.511-28.528t-28.528-11.511h-602.588q-17.017 0-29.028 11.511t-12.012 28.528v738.721q0 17.017 12.012 28.528t29.028 11.511h327.32v-350.342q0-22.022 20.020-30.53t36.035 5.505l62.061 57.056 59.058-56.055q10.010-9.009 23.022-9.009 7.007 0 13.013 2.002 20.020 9.009 20.020 31.030v350.342h42.041q17.017 0 28.528-11.511t11.511-28.528v-738.721zM533.521 343.46h-231.226q-13.013 0-23.022-9.509t-10.010-23.523 10.010-24.023 23.022-10.010h231.226q14.014 0 23.523 10.010t9.509 24.023-9.509 23.523-23.523 9.509zM440.43 163.284h-138.135q-13.013 0-23.022-10.010t-10.010-23.523 10.010-23.523 23.022-10.010h138.135q13.013 0 23.022 10.010t10.010 23.523-10.010 23.523-23.022 10.010z" />
<glyph unicode="&#xe64b;" glyph-name="xiaoxi" d="M829.81 754.862h-614.6q-56.055 0-96.094-40.039t-40.039-96.094v-341.333q0-57.056 40.039-97.095t96.094-40.039h79.077l58.057-150.147q10.010-21.021 30.029-21.021 26.025 0 31.030 21.021l58.057 150.147h352.344q56.055 0 96.094 40.039t40.039 97.095v341.333q5.005 56.055-34.033 96.094t-96.094 40.039zM898.878 277.396q0-29.028-20.020-49.048t-49.048-20.020h-375.367q-26.025 0-31.030-20.020l-37.036-92.090-38.037 92.090q-10.010 20.020-31.030 20.020h-102.1q-28.027 0-48.047 20.020t-20.020 49.048v341.333q0 28.027 20.020 48.047t48.047 20.020h614.6q29.028 0 49.048-20.020t20.020-48.047v-341.333zM727.711 550.663h-410.401q-15.015 0-24.524-9.509t-9.509-25.024 9.509-25.024 24.524-9.509h410.401q15.015 0 24.524 9.509t9.509 25.024-9.509 25.024-24.524 9.509zM659.644 413.529h-342.334q-15.015 0-24.524-9.509t-9.509-24.524 9.509-24.524 24.524-9.509h342.334q15.015 0 24.524 9.509t9.509 24.524-9.509 24.524-24.524 9.509z" />
<glyph unicode="&#xe650;" glyph-name="caidan" d="M961.939 714.823h-896.876v128.125h896.876v-128.125zM65.064 334.452v128.125h896.876v-128.125h-896.876zM65.064-52.927v128.125h896.876v-128.125h-896.876z" />
<glyph unicode="&#xe65d;" glyph-name="chaxun" horiz-adv-x="1045" d="M247.241 713.822h509.498v-63.062h-509.498v63.062zM246.24 585.697h508.497v-63.062h-508.497v63.062zM120.117 841.947h763.746v-508.497h63.062v508.497q0 27.026-18.518 45.544t-44.543 18.518h-763.746q-26.025 0-44.543-18.518t-18.518-45.544v-889.869q0-26.025 18.518-44.543t44.543-18.518h445.435v63.062h-445.435v889.869zM247.241 331.449v-63.062h154.151q0 34.033 10.010 63.062h-164.16zM506.495 458.573h-260.254v-63.062h193.189q27.026 38.037 67.065 63.062zM988.966-52.927l-146.143 144.141q53.052 63.062 53.052 145.142 0 92.090-65.064 157.153t-157.153 65.064-157.153-65.064-65.064-157.153 65.064-157.153 157.153-65.064q65.064 0 121.118 35.034l149.146-147.144q9.009-9.009 22.522-9.009t22.522 9.009 9.009 22.522-9.009 22.522zM515.503 236.356q0 66.065 46.545 112.61t112.109 46.545 112.109-46.545 46.545-112.109-46.545-112.109-112.61-46.545q-65.064-1.001-111.609 45.544t-46.545 112.61z" />
<glyph unicode="&#xe67b;" glyph-name="xiugaimima" d="M380.371 344.461l-28.027 28.027q-8.008 9.009-21.021 10.51t-27.026-12.512l-26.025-27.026q-24.023-24.023 1.001-50.049l25.024-25.024zM512.5 909.013q-104.102 0-198.694-40.54t-163.159-109.107-109.607-163.66-41.040-199.195 41.040-198.694 109.607-163.159 163.159-109.607 198.694-41.040 199.195 41.040 163.66 109.607 109.107 163.159 40.54 198.694-40.54 199.195-109.107 163.66-163.66 109.107-199.195 40.54zM513.001-38.913q-88.587 0-169.165 34.534t-139.136 93.091-93.091 139.136-34.534 169.165 34.534 169.165 93.091 138.635 139.136 92.59 169.165 34.534 169.165-34.534 138.635-92.59 92.59-138.635 34.534-169.165-34.534-169.165-92.59-139.136-138.635-93.091-169.165-34.534zM749.732 585.697q-24.023 23.022-53.552 35.034t-60.559 12.012-61.060-11.511-54.053-35.535q-18.018-18.018-29.529-40.54t-15.515-47.046-0.5-48.547 14.514-47.046l-172.168-171.167q-7.007-8.008-10.51-18.018t-3.503-21.021 4.004-22.022 11.011-19.019q8.008-7.007 18.518-10.51t20.52-2.502q11.011 0 20.020 4.504t17.017 11.511l171.167 171.167q22.022-11.011 47.046-14.014t49.048 0q24.023 4.004 46.545 15.515t41.541 29.529q24.023 24.023 36.035 54.053 11.011 29.028 11.011 61.060 0 31.030-12.012 61.060-11.011 29.028-35.034 53.052zM671.656 434.549q-17.017-16.016-39.539-16.016t-39.539 16.016q-16.016 17.017-16.016 39.539t16.016 39.539q17.017 16.016 39.539 16.016t39.539-16.016q16.016-17.017 16.016-39.539t-16.016-39.539z" />
<glyph unicode="&#xe690;" glyph-name="gongzuoliangtongji" d="M937.916 67.191h-785.767q-14.014 0-24.023 10.010t-10.010 24.023v649.634q0 7.007-5.005 12.012t-12.012 5.005-12.012-5.005-5.005-12.012v-649.634q0-28.027 20.020-48.047t48.047-20.020h785.767q7.007 0 12.012 5.005t5.005 12.012-5.005 12.012-12.012 5.005zM240.235 142.264h129.126q9.009 0 15.015 6.006t6.006 14.014v130.127q0 8.008-6.006 14.014t-15.015 6.006h-129.126q-9.009 0-15.015-6.006t-6.006-14.014v-130.127q0-8.008 6.006-14.014t15.015-6.006zM477.466 142.264h129.126q9.009 0 15.015 6.006t6.006 14.014v505.494q0 8.008-6.006 14.014t-15.015 6.006h-129.126q-9.009 0-15.015-6.006t-6.006-14.014v-505.494q0-8.008 6.006-14.014t15.015-6.006zM714.698 142.264h129.126q9.009 0 15.015 6.006t6.006 14.014v338.33q0 8.008-6.006 14.014t-15.015 6.006h-129.126q-9.009 0-15.015-6.006t-6.006-14.014v-338.33q0-8.008 6.006-14.014t15.015-6.006z" />
<glyph unicode="&#xe693;" glyph-name="tianjia" d="M948.927 472.587h-363.355v362.354q0 31.030-21.521 52.551t-52.051 21.521-52.551-21.521-22.022-52.551v-362.354h-362.354q-30.029 0-52.051-22.022t-22.022-52.551 22.022-52.051 52.051-21.521h362.354v-362.354q0-31.030 22.022-52.551t52.551-21.521 52.051 21.521 21.521 52.551v362.354h363.355q30.029 0 52.051 21.521t22.022 52.051-22.022 52.551-52.051 22.022z" />
<glyph unicode="&#xe69e;" glyph-name="web-search" d="M990.968 14.139l-203.198 203.198q60.059 83.081 76.074 182.678t-15.515 197.193-105.603 171.668q-60.059 60.059-138.135 92.59t-163.66 32.532-164.16-32.532-138.635-92.59q-61.060-62.061-93.591-141.638t-32.532-160.657 32.532-160.657 93.591-141.638q60.059-60.059 138.635-92.59t163.66-32.532q137.134 0 249.243 81.079l205.2-202.197q21.021-20.020 48.047-20.020t48.047 20.020q20.020 19.019 20.020 48.047t-20.020 48.047v0zM236.231 261.38q-85.083 85.083-85.083 205.701t85.083 205.701q85.083 86.084 204.7 86.084t204.7-86.084q85.083-84.082 85.083-204.7t-85.083-206.702q-85.083-85.083-204.7-85.083t-204.7 85.083z" />
<glyph unicode="&#xe6a4;" glyph-name="gengduo" d="M516.298 829.282c-243.439 0-441.547-198.108-441.547-441.649 0-243.439 198.108-441.649 441.547-441.649s441.547 198.108 441.547 441.649c0.102 243.542-198.005 441.649-441.547 441.649v0zM516.298 7.994c-209.364 0-379.638 170.274-379.638 379.638s170.274 379.638 379.638 379.638c209.262 0 379.638-170.274 379.638-379.638 0-209.262-170.274-379.638-379.638-379.638v0zM325.251 445.755c-32.029 0-58.123-25.991-58.123-58.123s25.991-58.123 58.123-58.123c32.029 0 58.123 25.991 58.123 58.123s-26.094 58.123-58.123 58.123v0zM516.298 445.755c-32.029 0-58.123-25.991-58.123-58.123s25.991-58.123 58.123-58.123c32.131 0 58.123 25.991 58.123 58.123s-25.991 58.123-58.123 58.123v0zM707.447 445.755c-32.029 0-58.123-25.991-58.123-58.123s25.991-58.123 58.123-58.123c32.029 0 58.123 25.991 58.123 58.123s-26.094 58.123-58.123 58.123v0z" />
<glyph unicode="&#xe6b8;" glyph-name="yiyuan" horiz-adv-x="1034" d="M1035.011 437.552h-304.297v467.457h-429.419v-467.457h-301.294v-542.53h301.294v-1.001h429.419v1.001h304.297v542.53zM300.293 315.433h-242.237v62.061h242.237v-62.061zM976.954 377.494v-62.061h-242.237v62.061h242.237zM672.657-33.908h-52.051v340.332h-205.2v-340.332h-56.055v878.858h313.306v-878.858zM393.384 651.761h99.097v-99.097q0-8.008 5.505-14.014t13.513-6.006 14.014 6.006 6.006 14.014v99.097h98.096q8.008 0 14.014 5.505t6.006 13.513-6.006 13.513-14.014 5.505h-98.096v99.097q0 8.008-6.006 13.513t-14.014 5.505-13.513-5.505-5.505-13.513v-99.097h-99.097q-8.008 0-13.513-5.505t-5.505-13.513 5.505-13.513 13.513-5.505z" />
<glyph unicode="&#xe6cc;" glyph-name="yewutongjizongbiao" d="M166.162 208.328h440.43v-62.061h-440.43v62.061zM921.9 897.001h-818.8q-26.025 0-44.543-18.018t-18.518-45.044v-874.854q0-27.026 18.518-45.044t44.543-18.018h818.8q26.025 0 44.543 18.018t18.518 45.044v874.854q0 27.026-18.518 45.044t-44.543 18.018v0zM921.9-41.916h-818.8v813.795h818.8v-813.795zM166.162 83.206h629.615v-62.061h-629.615v62.061zM858.839 709.818h-692.676v-438.428h692.676v438.428zM775.758 490.604q0-13.013-9.009-22.022t-22.022-9.009-22.522 9.009-9.509 22.022v54.053l-138.135-137.134q-9.009-9.009-22.022-9.009-12.012 0-21.021 9.009l-106.104 104.102-105.103-104.102q-9.009-9.009-21.521-9.009t-21.521 8.508-9.009 21.021 9.009 21.521l124.121 123.12q11.011 13.013 24.023 13.013 12.012 0 25.024-13.013l102.1-102.1 115.112 114.111h-49.048q-14.014 0-23.022 9.009t-9.009 22.022 9.509 22.022 22.522 9.009h124.121q14.014 0 25.024-11.011 8.008-8.008 8.008-21.021v-124.121z" />
<glyph unicode="&#xe725;" glyph-name="icon-test" d="M325.318 134.757q0 19.519-13.513 33.533t-33.533 14.014h-124.121q-20.020 0-33.533-14.014t-13.513-33.032 13.513-33.032 33.533-14.014h124.121q20.020 0 33.533 13.513t13.513 33.032zM154.151 618.729h124.121q20.020 0 33.533 13.513t13.513 33.032-13.513 33.032-33.533 13.513h-124.121q-20.020 0-33.533-13.513t-13.513-33.032 13.513-33.032 33.533-13.513zM107.105 400.016q0-19.519 13.513-33.032t33.533-13.513h124.121q20.020 0 33.533 13.513t13.513 33.032-13.513 33.032-33.533 13.513h-124.121q-20.020 1.001-33.533-13.013t-13.513-33.533zM852.833 852.958h-605.591q-19.019 0-33.032-13.513t-14.014-33.533v-47.046h78.076q39.038 0 66.565-27.026t27.527-66.065-27.527-66.565-66.565-27.527h-78.076v-78.076h78.076q39.038 0 66.565-27.026t27.527-66.065-27.527-66.065-66.565-27.026h-78.076v-78.076h78.076q39.038 0 66.565-27.527t27.527-66.565-27.527-66.565-66.565-27.527h-78.076v-46.045q0-20.020 14.014-33.533t33.032-13.513h606.592q26.025 0 45.044 13.513t19.019 33.533v810.792q0 20.020-19.019 33.533t-46.045 13.513zM766.749 337.455h-99.097v-114.111q0-13.013-9.009-21.521t-22.522-8.508-23.022 8.508-9.509 21.521v114.111h-92.090q-14.014 0-23.022 9.009t-9.009 21.521 9.009 21.521 23.022 9.009h92.090v33.032h-92.090q-14.014 0-23.022 9.009t-9.009 21.021 9.009 21.021 23.022 9.009h48.047l-71.069 65.064q-9.009 8.008-9.509 20.52t9.009 21.521 22.522 9.009 23.022-8.008l102.1-94.092 103.101 94.092q9.009 8.008 22.522 8.008t22.522-9.009 9.009-21.521-9.009-20.52l-71.069-65.064h54.053q13.013 0 22.522-9.009t9.509-21.021-9.509-21.021-22.522-9.009h-99.097v-33.032h99.097q13.013 0 22.522-9.009t9.509-21.521-9.509-21.521-22.522-9.009z" />
<glyph unicode="&#xe7ed;" glyph-name="gerenzhongxin" d="M612.598 340.457h-199.195q-128.125 0-218.714-89.087t-90.588-215.21v-19.019q0-17.017 9.509-29.028t34.033-19.519 46.045-12.012 65.064-6.006 71.069-2.002 83.582-0.5h199.195q51.050 0 82.581 0.5t72.070 2.502 64.063 6.506 46.545 12.012 33.032 19.519 10.010 28.027v19.019q0 126.123-90.588 215.21t-217.713 89.087zM502.491 374.491q99.097 0 169.165 69.067t70.068 166.162-70.068 166.162-169.165 69.067-169.165-69.067-70.068-166.162 70.068-166.162 169.165-69.067z" />
<glyph unicode="&#xe957;" glyph-name="display" d="M0 844.95v-640.626h1025.001v640.626h-1025.001zM960.938 268.387h-896.876v512.5h896.876v-512.5zM672.657 140.262h-320.313l-32.031-128.125-64.063-64.063h512.5l-64.063 64.063z" />
<glyph unicode="&#xe958;" glyph-name="laptop" d="M896.876 204.325v512.5c0 35.234-28.828 64.063-64.063 64.063h-640.626c-35.234 0-64.063-28.828-64.063-64.063v-512.5h-128.125v-192.188h1025.001v192.188h-128.125zM640.626 76.199h-256.25v64.063h256.25v-64.063zM832.813 204.325h-640.626v512.386c0.034 0.040 0.076 0.082 0.114 0.114h640.395c0.040-0.034 0.082-0.076 0.116-0.116v-512.384z" />
<glyph unicode="&#xe959;" glyph-name="mobile" d="M736.719 909.013h-448.438c-52.852 0-96.094-43.242-96.094-96.094v-832.813c0-52.852 43.242-96.094 96.094-96.094h448.438c52.852 0 96.094 43.242 96.094 96.094v832.813c0 52.852-43.242 96.094-96.094 96.094zM384.375 860.966h256.25v-32.031h-256.25v32.031zM512.5-51.926c-35.381 0-64.063 28.682-64.063 64.063s28.682 64.063 64.063 64.063 64.063-28.682 64.063-64.063-28.682-64.063-64.063-64.063zM768.751 140.262h-512.5v640.626h512.5v-640.626z" />
<glyph unicode="&#xe95a;" glyph-name="mobile2" d="M768.751 909.013h-576.563c-35.234 0-64.063-28.826-64.063-64.063v-896.876c0-35.234 28.826-64.063 64.063-64.063h576.563c35.234 0 64.063 28.828 64.063 64.063v896.876c0 35.236-28.828 64.063-64.063 64.063zM480.469-69.725c-27.519 0-49.831 22.312-49.831 49.831s22.312 49.831 49.831 49.831 49.831-22.312 49.831-49.831-22.312-49.831-49.831-49.831zM768.751 76.199h-576.563v704.688h576.563v-704.688z" />
<glyph unicode="&#xe984;" glyph-name="spinner11" d="M1025.001 524.637h-384.375l143.67 143.67c-72.601 72.597-169.125 112.58-271.795 112.58s-199.195-39.983-271.795-112.58c-72.597-72.601-112.58-169.125-112.58-271.795s39.983-199.195 112.58-271.795c72.601-72.597 169.125-112.58 271.795-112.58s199.195 39.983 271.793 112.582c6.062 6.060 11.872 12.304 17.473 18.686l96.414-84.364c-93.938-107.271-231.89-175.029-385.681-175.029-283.046 0-512.5 229.454-512.5 512.5s229.454 512.5 512.5 512.5c141.524 0 269.631-57.382 362.37-150.131l150.131 150.131v-384.375z" />
<glyph unicode="&#xe987;" glyph-name="zoom-in" d="M993.232 36.765l-242.789 206.496c-25.099 22.588-51.941 32.958-73.624 31.957 57.312 67.134 91.932 154.229 91.932 249.42 0 212.285-172.090 384.375-384.375 384.375-212.283 0-384.375-172.090-384.375-384.375s172.090-384.375 384.375-384.375c95.191 0 182.286 34.62 249.42 91.934-1.001-21.683 9.369-48.525 31.957-73.624l206.496-242.789c35.357-39.284 93.113-42.596 128.345-7.363s31.923 92.989-7.361 128.345zM384.375 268.387c-141.522 0-256.25 114.728-256.25 256.25s114.728 256.25 256.25 256.25 256.25-114.728 256.25-256.25-114.726-256.25-256.25-256.25zM448.438 716.825h-128.125v-128.125h-128.125v-128.125h128.125v-128.125h128.125v128.125h128.125v128.125h-128.125z" />
<glyph unicode="&#xe988;" glyph-name="zoom-out" d="M993.232 36.765l-242.789 206.496c-25.099 22.588-51.941 32.958-73.624 31.957 57.312 67.134 91.932 154.229 91.932 249.42 0 212.285-172.090 384.375-384.375 384.375-212.283 0-384.375-172.090-384.375-384.375s172.090-384.375 384.375-384.375c95.191 0 182.286 34.62 249.42 91.934-1.001-21.683 9.369-48.525 31.957-73.624l206.496-242.789c35.357-39.284 93.113-42.596 128.345-7.363s31.923 92.989-7.361 128.345zM384.375 268.387c-141.522 0-256.25 114.728-256.25 256.25s114.728 256.25 256.25 256.25 256.25-114.728 256.25-256.25-114.726-256.25-256.25-256.25zM192.188 588.7h384.375v-128.125h-384.375z" />
<glyph unicode="&#xe989;" glyph-name="enlarge2" d="M1025.001 909.013h-416.407l160.156-160.156-192.188-192.188 96.094-96.094 192.188 192.188 160.156-160.156zM1025.001-115.988v416.407l-160.156-160.156-192.188 192.188-96.094-96.094 192.188-192.188-160.156-160.156zM0-115.988h416.407l-160.156 160.156 192.188 192.188-96.094 96.094-192.188-192.188-160.156 160.156zM0 909.013v-416.407l160.156 160.156 192.188-192.188 96.094 96.094-192.188 192.188 160.156 160.156z" />
<glyph unicode="&#xe98a;" glyph-name="enlarge" d="M1025.001 909.013h-416.407l160.156-160.156-192.188-192.188 96.094-96.094 192.188 192.188 160.156-160.156zM1025.001-115.988v416.407l-160.156-160.156-192.188 192.188-96.094-96.094 192.188-192.188-160.156-160.156zM0-115.988h416.407l-160.156 160.156 192.188 192.188-96.094 96.094-192.188-192.188-160.156 160.156zM0 909.013v-416.407l160.156 160.156 192.188-192.188 96.094 96.094-192.188 192.188 160.156 160.156z" />
<glyph unicode="&#xe98b;" glyph-name="shrink" d="M576.563 460.575h416.407l-160.156 160.156 192.188 192.188-96.094 96.094-192.188-192.188-160.156 160.156zM576.563 332.45v-416.407l160.156 160.156 192.188-192.188 96.094 96.094-192.188 192.188 160.156 160.156zM448.438 332.454h-416.407l160.156-160.156-192.188-192.188 96.094-96.094 192.188 192.188 160.156-160.156zM448.438 460.575v416.407l-160.156-160.156-192.188 192.188-96.094-96.094 192.188-192.188-160.156-160.156z" />
<glyph unicode="&#xea0b;" glyph-name="plus" d="M992.97 524.637h-352.344v352.344c0 17.689-14.342 32.031-32.031 32.031h-192.188c-17.689 0-32.031-14.342-32.031-32.031v-352.344h-352.344c-17.689 0-32.031-14.342-32.031-32.031v-192.188c0-17.689 14.342-32.031 32.031-32.031h352.344v-352.344c0-17.689 14.342-32.031 32.031-32.031h192.188c17.689 0 32.031 14.342 32.031 32.031v352.344h352.344c17.689 0 32.031 14.342 32.031 32.031v192.188c0 17.689-14.342 32.031-32.031 32.031z" />
<glyph unicode="&#xea0c;" glyph-name="minus" d="M0 492.606v-192.188c0-17.689 14.342-32.031 32.031-32.031h960.938c17.689 0 32.031 14.342 32.031 32.031v192.188c0 17.689-14.342 32.031-32.031 32.031h-960.938c-17.689 0-32.031-14.342-32.031-32.031z" />
<glyph unicode="&#xea0f;" glyph-name="blocked" d="M874.894 758.906c-96.801 96.797-225.5 150.107-362.394 150.107s-265.593-53.31-362.394-150.107c-96.797-96.801-150.107-225.5-150.107-362.394s53.31-265.593 150.107-362.394c96.801-96.797 225.5-150.107 362.394-150.107s265.593 53.31 362.394 150.107c96.797 96.801 150.107 225.5 150.107 362.394s-53.31 265.593-150.107 362.394zM896.876 396.512c0-82.895-26.38-159.744-71.182-222.597l-535.789 535.791c62.853 44.802 139.7 71.182 222.595 71.182 211.945 0 384.375-172.43 384.375-384.375zM128.125 396.512c0 82.895 26.38 159.742 71.182 222.595l535.793-535.791c-62.855-44.8-139.704-71.18-222.599-71.18-211.945 0-384.375 172.43-384.375 384.375z" />
<glyph unicode="&#xea10;" glyph-name="cross" d="M1015.654 85.549c-0.004 0.004-0.008 0.008-0.012 0.010l-310.948 310.954 310.948 310.954c0.004 0.004 0.008 0.006 0.012 0.010 3.347 3.349 5.768 7.261 7.319 11.427 4.25 11.387 1.826 24.706-7.331 33.863l-146.889 146.889c-9.157 9.155-22.472 11.577-33.861 7.327-4.164-1.552-8.078-3.972-11.429-7.317 0-0.004-0.004-0.006-0.008-0.010l-310.952-310.956-310.952 310.954c-0.004 0.004-0.006 0.006-0.010 0.010-3.349 3.345-7.261 5.766-11.425 7.317-11.391 4.252-24.706 1.828-33.863-7.327l-146.891-146.891c-9.157-9.157-11.579-22.474-7.329-33.861 1.554-4.164 3.974-8.080 7.319-11.427 0.004-0.002 0.006-0.006 0.010-0.010l310.954-310.952-310.954-310.956c-0.002-0.004-0.006-0.006-0.008-0.010-3.345-3.349-5.766-7.261-7.321-11.425-4.252-11.387-1.828-24.706 7.329-33.863l146.891-146.889c9.159-9.157 22.474-11.579 33.863-7.329 4.164 1.554 8.078 3.974 11.427 7.319 0.002 0.004 0.006 0.006 0.010 0.010l310.952 310.954 310.952-310.954c0.004-0.002 0.008-0.006 0.012-0.008 3.351-3.347 7.261-5.768 11.425-7.321 11.389-4.25 24.708-1.828 33.861 7.329l146.889 146.891c9.157 9.157 11.581 22.476 7.331 33.863-1.554 4.164-3.974 8.076-7.321 11.425z" />
<glyph unicode="&#xea11;" glyph-name="checkmark" d="M864.845 780.888l-480.469-480.469-224.219 224.219-160.156-160.156 384.375-384.375 640.626 640.626z" />
<glyph unicode="&#xea12;" glyph-name="checkmark2" d="M397.822-9.58l-398.257 391.983 197.571 194.46 200.686-197.525 430.040 423.265 197.571-194.46-627.611-617.723zM108.017 382.402l289.807-285.241 519.163 510.981-89.123 87.718-430.040-423.265-200.686 197.527-89.121-87.72z" />
<glyph unicode="&#xea2e;" glyph-name="loop" d="M128.125 588.7h640.626v-192.188l256.25 256.25-256.25 256.25v-192.188h-768.751v-384.375h128.125zM896.876 204.325h-640.626v192.188l-256.25-256.25 256.25-256.25v192.188h768.751v384.375h-128.125z" />
<glyph unicode="&#xea2f;" glyph-name="loop2" d="M890.55 742.53c-93.7 102.316-228.377 166.483-378.049 166.483-283.046 0-512.5-229.454-512.5-512.5h96.094c0 229.975 186.432 416.407 416.407 416.407 123.14 0 233.77-53.47 309.999-138.441l-149.842-149.84h352.344v352.344l-134.451-134.451zM928.907 396.512c0-229.975-186.432-416.407-416.407-416.407-123.14 0-233.77 53.47-309.997 138.441l149.84 149.84h-352.344v-352.344l134.451 134.451c93.7-102.316 228.377-166.483 378.049-166.483 283.046 0 512.5 229.454 512.5 512.5h-96.094z" />
<glyph unicode="&#xea42;" glyph-name="circle-up" d="M0 396.512c0-283.046 229.454-512.5 512.5-512.5s512.5 229.454 512.5 512.5-229.454 512.5-512.5 512.5-512.5-229.454-512.5-512.5zM928.907 396.512c0-229.975-186.432-416.407-416.407-416.407s-416.407 186.432-416.407 416.407 186.432 416.407 416.407 416.407 416.407-186.432 416.407-416.407zM707.435 239.102l90.6 90.6-285.535 285.533-285.533-285.535 90.596-90.596 194.936 194.934z" />
<glyph unicode="&#xea43;" glyph-name="circle-right" d="M512.5 909.013c-283.046 0-512.5-229.454-512.5-512.5s229.454-512.5 512.5-512.5 512.5 229.454 512.5 512.5-229.454 512.5-512.5 512.5zM512.5-19.894c-229.975 0-416.407 186.432-416.407 416.407s186.432 416.407 416.407 416.407 416.407-186.432 416.407-416.407-186.432-416.407-416.407-416.407zM355.091 201.578l90.6-90.6 285.533 285.535-285.535 285.533-90.596-90.596 194.934-194.936z" />
<glyph unicode="&#xea44;" glyph-name="circle-down" d="M1025.001 396.512c0 283.046-229.454 512.5-512.5 512.5s-512.5-229.454-512.5-512.5 229.454-512.5 512.5-512.5 512.5 229.454 512.5 512.5zM96.094 396.512c0 229.975 186.432 416.407 416.407 416.407s416.407-186.432 416.407-416.407-186.432-416.407-416.407-416.407-416.407 186.432-416.407 416.407zM317.566 553.922l-90.6-90.6 285.535-285.533 285.533 285.535-90.596 90.596-194.936-194.934z" />
<glyph unicode="&#xea45;" glyph-name="circle-left" d="M512.5-115.988c283.046 0 512.5 229.454 512.5 512.5s-229.454 512.5-512.5 512.5-512.5-229.454-512.5-512.5 229.454-512.5 512.5-512.5zM512.5 812.919c229.975 0 416.407-186.432 416.407-416.407s-186.432-416.407-416.407-416.407-416.407 186.432-416.407 416.407 186.432 416.407 416.407 416.407zM669.91 591.447l-90.6 90.6-285.533-285.535 285.535-285.533 90.596 90.596-194.934 194.936z" />
<glyph unicode="&#xf04a;" glyph-name="backward3" horiz-adv-x="952" d="M926.047 828.363q10.868 10.868 18.304 7.436t7.436-18.304v-841.965q0-14.872-7.436-18.304t-18.304 7.436l-406.111 406.111q-5.148 5.148-7.436 10.868v-406.111q0-14.872-7.436-18.304t-18.304 7.436l-406.111 406.111q-10.868 10.868-10.868 25.739t10.868 25.739l406.111 406.111q10.868 10.868 18.304 7.436t7.436-18.304v-406.111q2.288 5.72 7.436 10.868z" />
<glyph unicode="&#xf04e;" glyph-name="forward4" horiz-adv-x="952" d="M25.739-35.339q-10.868-10.868-18.304-7.436t-7.436 18.304v841.965q0 14.872 7.436 18.304t18.304-7.436l406.111-406.111q5.148-5.148 7.436-10.868v406.111q0 14.872 7.436 18.304t18.304-7.436l406.111-406.111q10.868-10.868 10.868-25.739t-10.868-25.739l-406.111-406.111q-10.868-10.868-18.304-7.436t-7.436 18.304v406.111q-2.288-5.72-7.436-10.868z" />
<glyph unicode="&#xf053;" glyph-name="chevron_left" horiz-adv-x="732" d="M669.797 736.845l-303.726-303.726 303.726-303.726q10.868-10.868 10.868-25.739t-10.868-25.739l-94.95-94.95q-10.868-10.868-25.739-10.868t-25.739 10.868l-424.414 424.414q-10.868 10.868-10.868 25.739t10.868 25.739l424.414 424.414q10.868 10.868 25.739 10.868t25.739-10.868l94.95-94.95q10.868-10.868 10.868-25.739t-10.868-25.739z" />
<glyph unicode="&#xf054;" glyph-name="chevron_right" horiz-adv-x="732" d="M633.189 407.38l-424.414-424.414q-10.868-10.868-25.739-10.868t-25.739 10.868l-94.95 94.95q-10.868 10.868-10.868 25.739t10.868 25.739l303.726 303.726-303.726 303.726q-10.868 10.868-10.868 25.739t10.868 25.739l94.95 94.95q10.868 10.868 25.739 10.868t25.739-10.868l424.414-424.414q10.868-10.868 10.868-25.739t-10.868-25.739z" />
<glyph unicode="&#xf0d7;" glyph-name="caret_down" horiz-adv-x="586" d="M585.715 506.333q0-14.872-10.868-25.739l-256.25-256.25q-10.868-10.868-25.739-10.868t-25.739 10.868l-256.25 256.25q-10.868 10.868-10.868 25.739t10.868 25.739 25.739 10.868h512.5q14.872 0 25.739-10.868t10.868-25.739z" />
<glyph unicode="&#xf0d8;" glyph-name="caret_up" horiz-adv-x="586" d="M585.715 213.476q0-14.872-10.868-25.739t-25.739-10.868h-512.5q-14.872 0-25.739 10.868t-10.868 25.739 10.868 25.739l256.25 256.25q10.868 10.868 25.739 10.868t25.739-10.868l256.25-256.25q10.868-10.868 10.868-25.739z" />
<glyph unicode="&#xf0d9;" glyph-name="caret_left" horiz-adv-x="366" d="M366.071 652.762v-512.5q0-14.872-10.868-25.739t-25.739-10.868-25.739 10.868l-256.25 256.25q-10.868 10.868-10.868 25.739t10.868 25.739l256.25 256.25q10.868 10.868 25.739 10.868t25.739-10.868 10.868-25.739z" />
<glyph unicode="&#xf0da;" glyph-name="caret_right" horiz-adv-x="366" d="M329.465 396.512q0-14.872-10.868-25.739l-256.25-256.25q-10.868-10.868-25.739-10.868t-25.739 10.868-10.868 25.739v512.5q0 14.872 10.868 25.739t25.739 10.868 25.739-10.868l256.25-256.25q10.868-10.868 10.868-25.739z" />
<glyph unicode="&#xf0dc;" glyph-name="sort" horiz-adv-x="586" d="M585.715 286.691q0-14.872-10.868-25.739l-256.25-256.25q-10.868-10.868-25.739-10.868t-25.739 10.868l-256.25 256.25q-10.868 10.868-10.868 25.739t10.868 25.739 25.739 10.868h512.5q14.872 0 25.739-10.868t10.868-25.739zM585.715 506.333q0-14.872-10.868-25.739t-25.739-10.868h-512.5q-14.872 0-25.739 10.868t-10.868 25.739 10.868 25.739l256.25 256.25q10.868 10.868 25.739 10.868t25.739-10.868l256.25-256.25q10.868-10.868 10.868-25.739z" />
<glyph unicode="&#xf0dd;" glyph-name="sort_down" horiz-adv-x="586" d="M585.715 286.691q0-14.872-10.868-25.739l-256.25-256.25q-10.868-10.868-25.739-10.868t-25.739 10.868l-256.25 256.25q-10.868 10.868-10.868 25.739t10.868 25.739 25.739 10.868h512.5q14.872 0 25.739-10.868t10.868-25.739z" />
<glyph unicode="&#xf0de;" glyph-name="sort_up" horiz-adv-x="586" d="M585.715 506.333q0-14.872-10.868-25.739t-25.739-10.868h-512.5q-14.872 0-25.739 10.868t-10.868 25.739 10.868 25.739l256.25 256.25q10.868 10.868 25.739 10.868t25.739-10.868l256.25-256.25q10.868-10.868 10.868-25.739z" />
<glyph unicode="&#xf100;" glyph-name="double_angle_left" horiz-adv-x="586" d="M358.636 121.958q0-7.436-5.72-13.156l-28.599-28.599q-5.72-5.72-13.156-5.72t-13.156 5.72l-266.546 266.546q-5.72 5.72-5.72 13.156t5.72 13.156l266.546 266.546q5.72 5.72 13.156 5.72t13.156-5.72l28.599-28.599q5.72-5.72 5.72-13.156t-5.72-13.156l-224.791-224.791 224.791-224.791q5.72-5.72 5.72-13.156zM578.279 121.958q0-7.436-5.72-13.156l-28.599-28.599q-5.72-5.72-13.156-5.72t-13.156 5.72l-266.546 266.546q-5.72 5.72-5.72 13.156t5.72 13.156l266.546 266.546q5.72 5.72 13.156 5.72t13.156-5.72l28.599-28.599q5.72-5.72 5.72-13.156t-5.72-13.156l-224.791-224.791 224.791-224.791q5.72-5.72 5.72-13.156z" />
<glyph unicode="&#xf101;" glyph-name="double_angle_right" horiz-adv-x="586" d="M340.332 359.905q0-7.436-5.72-13.156l-266.546-266.546q-5.72-5.72-13.156-5.72t-13.156 5.72l-28.599 28.599q-5.72 5.72-5.72 13.156t5.72 13.156l224.791 224.791-224.791 224.791q-5.72 5.72-5.72 13.156t5.72 13.156l28.599 28.599q5.72 5.72 13.156 5.72t13.156-5.72l266.546-266.546q5.72-5.72 5.72-13.156zM559.976 359.905q0-7.436-5.72-13.156l-266.546-266.546q-5.72-5.72-13.156-5.72t-13.156 5.72l-28.599 28.599q-5.72 5.72-5.72 13.156t5.72 13.156l224.791 224.791-224.791 224.791q-5.72 5.72-5.72 13.156t5.72 13.156l28.599 28.599q5.72 5.72 13.156 5.72t13.156-5.72l266.546-266.546q5.72-5.72 5.72-13.156z" />
<glyph unicode="&#xf102;" glyph-name="double_angle_up" horiz-adv-x="659" d="M614.886 158.566q0-7.436-5.72-13.156l-28.599-28.599q-5.72-5.72-13.156-5.72t-13.156 5.72l-224.791 224.791-224.791-224.791q-5.72-5.72-13.156-5.72t-13.156 5.72l-28.599 28.599q-5.72 5.72-5.72 13.156t5.72 13.156l266.546 266.546q5.72 5.72 13.156 5.72t13.156-5.72l266.546-266.546q5.72-5.72 5.72-13.156zM614.886 378.208q0-7.436-5.72-13.156l-28.599-28.599q-5.72-5.72-13.156-5.72t-13.156 5.72l-224.791 224.791-224.791-224.791q-5.72-5.72-13.156-5.72t-13.156 5.72l-28.599 28.599q-5.72 5.72-5.72 13.156t5.72 13.156l266.546 266.546q5.72 5.72 13.156 5.72t13.156-5.72l266.546-266.546q5.72-5.72 5.72-13.156z" />
<glyph unicode="&#xf103;" glyph-name="double_angle_down" horiz-adv-x="659" d="M614.886 414.816q0-7.436-5.72-13.156l-266.546-266.546q-5.72-5.72-13.156-5.72t-13.156 5.72l-266.546 266.546q-5.72 5.72-5.72 13.156t5.72 13.156l28.599 28.599q5.72 5.72 13.156 5.72t13.156-5.72l224.791-224.791 224.791 224.791q5.72 5.72 13.156 5.72t13.156-5.72l28.599-28.599q5.72-5.72 5.72-13.156zM614.886 634.459q0-7.436-5.72-13.156l-266.546-266.546q-5.72-5.72-13.156-5.72t-13.156 5.72l-266.546 266.546q-5.72 5.72-5.72 13.156t5.72 13.156l28.599 28.599q5.72 5.72 13.156 5.72t13.156-5.72l224.791-224.791 224.791 224.791q5.72 5.72 13.156 5.72t13.156-5.72l28.599-28.599q5.72-5.72 5.72-13.156z" />
<glyph unicode="&#xf104;" glyph-name="angle_left" horiz-adv-x="366" d="M358.636 597.852q0-7.436-5.72-13.156l-224.791-224.791 224.791-224.791q5.72-5.72 5.72-13.156t-5.72-13.156l-28.599-28.599q-5.72-5.72-13.156-5.72t-13.156 5.72l-266.546 266.546q-5.72 5.72-5.72 13.156t5.72 13.156l266.546 266.546q5.72 5.72 13.156 5.72t13.156-5.72l28.599-28.599q5.72-5.72 5.72-13.156z" />
<glyph unicode="&#xf105;" glyph-name="angle_right" horiz-adv-x="366" d="M340.332 359.905q0-7.436-5.72-13.156l-266.546-266.546q-5.72-5.72-13.156-5.72t-13.156 5.72l-28.599 28.599q-5.72 5.72-5.72 13.156t5.72 13.156l224.791 224.791-224.791 224.791q-5.72 5.72-5.72 13.156t5.72 13.156l28.599 28.599q5.72 5.72 13.156 5.72t13.156-5.72l266.546-266.546q5.72-5.72 5.72-13.156z" />
<glyph unicode="&#xf106;" glyph-name="angle_up" horiz-adv-x="659" d="M614.886 231.78q0-7.436-5.72-13.156l-28.599-28.599q-5.72-5.72-13.156-5.72t-13.156 5.72l-224.791 224.791-224.791-224.791q-5.72-5.72-13.156-5.72t-13.156 5.72l-28.599 28.599q-5.72 5.72-5.72 13.156t5.72 13.156l266.546 266.546q5.72 5.72 13.156 5.72t13.156-5.72l266.546-266.546q5.72-5.72 5.72-13.156z" />
<glyph unicode="&#xf107;" glyph-name="angle_down" horiz-adv-x="659" d="M614.886 488.031q0-7.436-5.72-13.156l-266.546-266.546q-5.72-5.72-13.156-5.72t-13.156 5.72l-266.546 266.546q-5.72 5.72-5.72 13.156t5.72 13.156l28.599 28.599q5.72 5.72 13.156 5.72t13.156-5.72l224.791-224.791 224.791 224.791q5.72 5.72 13.156 5.72t13.156-5.72l28.599-28.599q5.72-5.72 5.72-13.156z" />
</font>
</defs>
</svg>
